<mxfile host="app.diagrams.net" modified="2023-05-15T01:10:27.242Z" agent="Mozilla/5.0 (Windows NT 10.0; Win64; x64) AppleWebKit/537.36 (KHTML, like Gecko) Chrome/113.0.0.0 Safari/537.36" etag="i4lQgB3_LVdnehSdIkZL" version="21.2.1" type="device">
  <diagram name="Trang-1" id="Jnu4Zh0SzcZ3p2nJcFpW">
    <mxGraphModel dx="2600" dy="1586" grid="1" gridSize="10" guides="1" tooltips="1" connect="1" arrows="1" fold="1" page="1" pageScale="1" pageWidth="1100" pageHeight="850" math="0" shadow="0">
      <root>
        <mxCell id="0" />
        <mxCell id="1" parent="0" />
        <mxCell id="5MQPCh5CGqPXgM4dFMeY-1" value="&lt;font color=&quot;#ffffff&quot;&gt;&lt;b&gt;NHÀ CUNG CẤP&lt;/b&gt;&lt;/font&gt;" style="rounded=0;whiteSpace=wrap;html=1;fillColor=#3AAD4C;" parent="1" vertex="1">
          <mxGeometry x="170" y="140" width="110" height="50" as="geometry" />
        </mxCell>
        <mxCell id="5MQPCh5CGqPXgM4dFMeY-3" value="NgayDH" style="ellipse;whiteSpace=wrap;html=1;" parent="1" vertex="1">
          <mxGeometry x="480" y="90" width="70" height="25" as="geometry" />
        </mxCell>
        <mxCell id="5MQPCh5CGqPXgM4dFMeY-4" value="&lt;b&gt;&lt;u&gt;MaDDH&lt;/u&gt;&lt;/b&gt;" style="ellipse;whiteSpace=wrap;html=1;" parent="1" vertex="1">
          <mxGeometry x="400" y="90" width="70" height="30" as="geometry" />
        </mxCell>
        <mxCell id="5MQPCh5CGqPXgM4dFMeY-5" value="Email" style="ellipse;whiteSpace=wrap;html=1;" parent="1" vertex="1">
          <mxGeometry x="170" y="220" width="60" height="20" as="geometry" />
        </mxCell>
        <mxCell id="5MQPCh5CGqPXgM4dFMeY-6" value="SDTNCC" style="ellipse;whiteSpace=wrap;html=1;" parent="1" vertex="1">
          <mxGeometry x="100" y="190" width="60" height="30" as="geometry" />
        </mxCell>
        <mxCell id="5MQPCh5CGqPXgM4dFMeY-7" value="DiaChi" style="ellipse;whiteSpace=wrap;html=1;" parent="1" vertex="1">
          <mxGeometry x="80" y="140" width="60" height="30" as="geometry" />
        </mxCell>
        <mxCell id="5MQPCh5CGqPXgM4dFMeY-8" value="TenNCC" style="ellipse;whiteSpace=wrap;html=1;" parent="1" vertex="1">
          <mxGeometry x="100" y="100" width="70" height="30" as="geometry" />
        </mxCell>
        <mxCell id="5MQPCh5CGqPXgM4dFMeY-9" value="&lt;b&gt;&lt;u&gt;MaNCC&lt;/u&gt;&lt;/b&gt;" style="ellipse;whiteSpace=wrap;html=1;" parent="1" vertex="1">
          <mxGeometry x="160" y="60" width="60" height="40" as="geometry" />
        </mxCell>
        <mxCell id="5MQPCh5CGqPXgM4dFMeY-10" value="" style="endArrow=none;html=1;rounded=0;exitX=0.5;exitY=1;exitDx=0;exitDy=0;entryX=0.5;entryY=0;entryDx=0;entryDy=0;" parent="1" source="5MQPCh5CGqPXgM4dFMeY-9" target="5MQPCh5CGqPXgM4dFMeY-1" edge="1">
          <mxGeometry width="50" height="50" relative="1" as="geometry">
            <mxPoint x="320" y="160" as="sourcePoint" />
            <mxPoint x="370" y="110" as="targetPoint" />
          </mxGeometry>
        </mxCell>
        <mxCell id="5MQPCh5CGqPXgM4dFMeY-11" value="" style="endArrow=none;html=1;rounded=0;entryX=0.25;entryY=0;entryDx=0;entryDy=0;" parent="1" source="5MQPCh5CGqPXgM4dFMeY-8" target="5MQPCh5CGqPXgM4dFMeY-1" edge="1">
          <mxGeometry width="50" height="50" relative="1" as="geometry">
            <mxPoint x="330" y="170" as="sourcePoint" />
            <mxPoint x="380" y="120" as="targetPoint" />
          </mxGeometry>
        </mxCell>
        <mxCell id="5MQPCh5CGqPXgM4dFMeY-12" value="" style="endArrow=none;html=1;rounded=0;exitX=0.967;exitY=0.753;exitDx=0;exitDy=0;exitPerimeter=0;entryX=0;entryY=0.5;entryDx=0;entryDy=0;" parent="1" source="5MQPCh5CGqPXgM4dFMeY-7" target="5MQPCh5CGqPXgM4dFMeY-1" edge="1">
          <mxGeometry width="50" height="50" relative="1" as="geometry">
            <mxPoint x="340" y="180" as="sourcePoint" />
            <mxPoint x="390" y="130" as="targetPoint" />
          </mxGeometry>
        </mxCell>
        <mxCell id="5MQPCh5CGqPXgM4dFMeY-13" value="" style="endArrow=none;html=1;rounded=0;exitX=1;exitY=0.5;exitDx=0;exitDy=0;entryX=0.25;entryY=1;entryDx=0;entryDy=0;" parent="1" source="5MQPCh5CGqPXgM4dFMeY-6" target="5MQPCh5CGqPXgM4dFMeY-1" edge="1">
          <mxGeometry width="50" height="50" relative="1" as="geometry">
            <mxPoint x="350" y="190" as="sourcePoint" />
            <mxPoint x="400" y="140" as="targetPoint" />
          </mxGeometry>
        </mxCell>
        <mxCell id="5MQPCh5CGqPXgM4dFMeY-14" value="" style="endArrow=none;html=1;rounded=0;exitX=0.5;exitY=0;exitDx=0;exitDy=0;entryX=0.5;entryY=1;entryDx=0;entryDy=0;" parent="1" source="5MQPCh5CGqPXgM4dFMeY-5" target="5MQPCh5CGqPXgM4dFMeY-1" edge="1">
          <mxGeometry width="50" height="50" relative="1" as="geometry">
            <mxPoint x="360" y="200" as="sourcePoint" />
            <mxPoint x="410" y="150" as="targetPoint" />
          </mxGeometry>
        </mxCell>
        <mxCell id="5MQPCh5CGqPXgM4dFMeY-15" value="" style="endArrow=none;html=1;rounded=0;exitX=1;exitY=0.5;exitDx=0;exitDy=0;entryX=0;entryY=0.5;entryDx=0;entryDy=0;" parent="1" source="5MQPCh5CGqPXgM4dFMeY-1" target="5MQPCh5CGqPXgM4dFMeY-16" edge="1">
          <mxGeometry width="50" height="50" relative="1" as="geometry">
            <mxPoint x="330" y="260" as="sourcePoint" />
            <mxPoint x="390" y="210" as="targetPoint" />
          </mxGeometry>
        </mxCell>
        <mxCell id="5MQPCh5CGqPXgM4dFMeY-16" value="cung cấp" style="rhombus;whiteSpace=wrap;html=1;" parent="1" vertex="1">
          <mxGeometry x="310" y="145" width="70" height="40" as="geometry" />
        </mxCell>
        <mxCell id="5MQPCh5CGqPXgM4dFMeY-18" value="" style="endArrow=none;html=1;rounded=0;exitX=1;exitY=0.5;exitDx=0;exitDy=0;entryX=0;entryY=0.5;entryDx=0;entryDy=0;" parent="1" source="5MQPCh5CGqPXgM4dFMeY-16" target="5MQPCh5CGqPXgM4dFMeY-19" edge="1">
          <mxGeometry width="50" height="50" relative="1" as="geometry">
            <mxPoint x="370" y="280" as="sourcePoint" />
            <mxPoint x="400" y="170" as="targetPoint" />
          </mxGeometry>
        </mxCell>
        <mxCell id="5MQPCh5CGqPXgM4dFMeY-19" value="&lt;font color=&quot;#ffffff&quot;&gt;&lt;b&gt;ĐƠN ĐẶT HÀNG&lt;/b&gt;&lt;/font&gt;" style="rounded=0;whiteSpace=wrap;html=1;fillColor=#3AAD4C;" parent="1" vertex="1">
          <mxGeometry x="420" y="140" width="110" height="50" as="geometry" />
        </mxCell>
        <mxCell id="5MQPCh5CGqPXgM4dFMeY-20" value="" style="endArrow=none;html=1;rounded=0;exitX=0.5;exitY=1;exitDx=0;exitDy=0;entryX=0.5;entryY=0;entryDx=0;entryDy=0;" parent="1" source="5MQPCh5CGqPXgM4dFMeY-3" target="5MQPCh5CGqPXgM4dFMeY-19" edge="1">
          <mxGeometry width="50" height="50" relative="1" as="geometry">
            <mxPoint x="510" y="320" as="sourcePoint" />
            <mxPoint x="560" y="270" as="targetPoint" />
          </mxGeometry>
        </mxCell>
        <mxCell id="5MQPCh5CGqPXgM4dFMeY-21" value="" style="endArrow=none;html=1;rounded=0;entryX=0.5;entryY=1;entryDx=0;entryDy=0;exitX=0.25;exitY=0;exitDx=0;exitDy=0;" parent="1" source="5MQPCh5CGqPXgM4dFMeY-19" target="5MQPCh5CGqPXgM4dFMeY-4" edge="1">
          <mxGeometry width="50" height="50" relative="1" as="geometry">
            <mxPoint x="430" y="290" as="sourcePoint" />
            <mxPoint x="480" y="240" as="targetPoint" />
          </mxGeometry>
        </mxCell>
        <mxCell id="5MQPCh5CGqPXgM4dFMeY-22" value="" style="endArrow=none;html=1;rounded=0;entryX=0.5;entryY=1;entryDx=0;entryDy=0;exitX=0.5;exitY=0;exitDx=0;exitDy=0;" parent="1" source="5MQPCh5CGqPXgM4dFMeY-24" target="5MQPCh5CGqPXgM4dFMeY-19" edge="1">
          <mxGeometry width="50" height="50" relative="1" as="geometry">
            <mxPoint x="470" y="240" as="sourcePoint" />
            <mxPoint x="450" y="350" as="targetPoint" />
          </mxGeometry>
        </mxCell>
        <mxCell id="5MQPCh5CGqPXgM4dFMeY-23" value="&lt;b&gt;&lt;font color=&quot;#ffffff&quot;&gt;CHI TIẾT ĐƠN ĐH&lt;/font&gt;&lt;/b&gt;" style="rounded=0;whiteSpace=wrap;html=1;fillColor=#3AAD4C;" parent="1" vertex="1">
          <mxGeometry x="420" y="310" width="110" height="50" as="geometry" />
        </mxCell>
        <mxCell id="5MQPCh5CGqPXgM4dFMeY-24" value="thuộc" style="rhombus;whiteSpace=wrap;html=1;" parent="1" vertex="1">
          <mxGeometry x="442.5" y="230" width="65" height="40" as="geometry" />
        </mxCell>
        <mxCell id="5MQPCh5CGqPXgM4dFMeY-25" value="" style="endArrow=none;html=1;rounded=0;entryX=0.5;entryY=1;entryDx=0;entryDy=0;exitX=0.5;exitY=0;exitDx=0;exitDy=0;" parent="1" source="5MQPCh5CGqPXgM4dFMeY-23" target="5MQPCh5CGqPXgM4dFMeY-24" edge="1">
          <mxGeometry width="50" height="50" relative="1" as="geometry">
            <mxPoint x="475" y="340" as="sourcePoint" />
            <mxPoint x="520" y="330" as="targetPoint" />
          </mxGeometry>
        </mxCell>
        <mxCell id="5MQPCh5CGqPXgM4dFMeY-26" value="GiaTien" style="ellipse;whiteSpace=wrap;html=1;" parent="1" vertex="1">
          <mxGeometry x="550" y="335" width="60" height="35" as="geometry" />
        </mxCell>
        <mxCell id="5MQPCh5CGqPXgM4dFMeY-27" value="GiaTien" style="ellipse;whiteSpace=wrap;html=1;" parent="1" vertex="1">
          <mxGeometry x="1135" y="565" width="60" height="30" as="geometry" />
        </mxCell>
        <mxCell id="5MQPCh5CGqPXgM4dFMeY-28" value="MoTa" style="ellipse;whiteSpace=wrap;html=1;" parent="1" vertex="1">
          <mxGeometry x="1095" y="535" width="60" height="30" as="geometry" />
        </mxCell>
        <mxCell id="5MQPCh5CGqPXgM4dFMeY-29" value="TenSP" style="ellipse;whiteSpace=wrap;html=1;" parent="1" vertex="1">
          <mxGeometry x="1092.5" y="490" width="60" height="30" as="geometry" />
        </mxCell>
        <mxCell id="5MQPCh5CGqPXgM4dFMeY-30" value="&lt;b&gt;&lt;u&gt;MaSP&lt;/u&gt;&lt;/b&gt;" style="ellipse;whiteSpace=wrap;html=1;" parent="1" vertex="1">
          <mxGeometry x="1132.5" y="460" width="57.5" height="30" as="geometry" />
        </mxCell>
        <mxCell id="5MQPCh5CGqPXgM4dFMeY-32" value="SoLuong" style="ellipse;whiteSpace=wrap;html=1;" parent="1" vertex="1">
          <mxGeometry x="340" y="337.5" width="50" height="30" as="geometry" />
        </mxCell>
        <mxCell id="5MQPCh5CGqPXgM4dFMeY-33" value="MaSP" style="ellipse;whiteSpace=wrap;html=1;" parent="1" vertex="1">
          <mxGeometry x="330" y="303.5" width="55" height="25" as="geometry" />
        </mxCell>
        <mxCell id="5MQPCh5CGqPXgM4dFMeY-34" value="&lt;b&gt;&lt;u&gt;MaCTDDH&lt;/u&gt;&lt;/b&gt;" style="ellipse;whiteSpace=wrap;html=1;" parent="1" vertex="1">
          <mxGeometry x="350" y="270" width="71" height="28.5" as="geometry" />
        </mxCell>
        <mxCell id="5MQPCh5CGqPXgM4dFMeY-35" value="" style="endArrow=none;html=1;rounded=0;entryX=0.5;entryY=1;entryDx=0;entryDy=0;exitX=0.5;exitY=0;exitDx=0;exitDy=0;" parent="1" source="5MQPCh5CGqPXgM4dFMeY-36" target="5MQPCh5CGqPXgM4dFMeY-23" edge="1">
          <mxGeometry width="50" height="50" relative="1" as="geometry">
            <mxPoint x="475" y="400" as="sourcePoint" />
            <mxPoint x="560" y="270" as="targetPoint" />
          </mxGeometry>
        </mxCell>
        <mxCell id="5MQPCh5CGqPXgM4dFMeY-36" value="thuộc" style="rhombus;whiteSpace=wrap;html=1;" parent="1" vertex="1">
          <mxGeometry x="442.5" y="390" width="65" height="45" as="geometry" />
        </mxCell>
        <mxCell id="5MQPCh5CGqPXgM4dFMeY-37" value="" style="endArrow=none;html=1;rounded=0;entryX=0.5;entryY=1;entryDx=0;entryDy=0;exitX=0.5;exitY=0;exitDx=0;exitDy=0;" parent="1" source="5MQPCh5CGqPXgM4dFMeY-38" edge="1">
          <mxGeometry width="50" height="50" relative="1" as="geometry">
            <mxPoint x="1235" y="495" as="sourcePoint" />
            <mxPoint x="1235" y="460" as="targetPoint" />
          </mxGeometry>
        </mxCell>
        <mxCell id="5MQPCh5CGqPXgM4dFMeY-38" value="&lt;font color=&quot;#ffffff&quot;&gt;SẢN PHẨM&lt;/font&gt;" style="rounded=0;whiteSpace=wrap;html=1;fillColor=#3AAD4C;" parent="1" vertex="1">
          <mxGeometry x="1180" y="495" width="110" height="50" as="geometry" />
        </mxCell>
        <mxCell id="5MQPCh5CGqPXgM4dFMeY-40" value="" style="endArrow=none;html=1;rounded=0;exitX=0;exitY=0.5;exitDx=0;exitDy=0;entryX=1;entryY=0.25;entryDx=0;entryDy=0;" parent="1" source="5MQPCh5CGqPXgM4dFMeY-26" edge="1">
          <mxGeometry width="50" height="50" relative="1" as="geometry">
            <mxPoint x="710" y="317.5" as="sourcePoint" />
            <mxPoint x="530" y="347.5" as="targetPoint" />
          </mxGeometry>
        </mxCell>
        <mxCell id="5MQPCh5CGqPXgM4dFMeY-41" value="" style="endArrow=none;html=1;rounded=0;exitX=1;exitY=0.5;exitDx=0;exitDy=0;entryX=0;entryY=0.5;entryDx=0;entryDy=0;" parent="1" source="5MQPCh5CGqPXgM4dFMeY-32" target="5MQPCh5CGqPXgM4dFMeY-23" edge="1">
          <mxGeometry width="50" height="50" relative="1" as="geometry">
            <mxPoint x="510" y="320" as="sourcePoint" />
            <mxPoint x="560" y="270" as="targetPoint" />
          </mxGeometry>
        </mxCell>
        <mxCell id="5MQPCh5CGqPXgM4dFMeY-42" value="" style="endArrow=none;html=1;rounded=0;entryX=1;entryY=0.5;entryDx=0;entryDy=0;exitX=0;exitY=0.25;exitDx=0;exitDy=0;" parent="1" source="5MQPCh5CGqPXgM4dFMeY-23" target="5MQPCh5CGqPXgM4dFMeY-33" edge="1">
          <mxGeometry width="50" height="50" relative="1" as="geometry">
            <mxPoint x="525" y="310" as="sourcePoint" />
            <mxPoint x="575" y="260" as="targetPoint" />
          </mxGeometry>
        </mxCell>
        <mxCell id="5MQPCh5CGqPXgM4dFMeY-43" value="" style="endArrow=none;html=1;rounded=0;entryX=1;entryY=1;entryDx=0;entryDy=0;exitX=0.25;exitY=0;exitDx=0;exitDy=0;" parent="1" source="5MQPCh5CGqPXgM4dFMeY-23" target="5MQPCh5CGqPXgM4dFMeY-34" edge="1">
          <mxGeometry width="50" height="50" relative="1" as="geometry">
            <mxPoint x="510" y="320" as="sourcePoint" />
            <mxPoint x="560" y="270" as="targetPoint" />
          </mxGeometry>
        </mxCell>
        <mxCell id="5MQPCh5CGqPXgM4dFMeY-44" value="" style="endArrow=none;html=1;rounded=0;" parent="1" edge="1">
          <mxGeometry width="50" height="50" relative="1" as="geometry">
            <mxPoint x="1105" y="470" as="sourcePoint" />
            <mxPoint x="1105" y="470" as="targetPoint" />
            <Array as="points">
              <mxPoint x="1105" y="470" />
            </Array>
          </mxGeometry>
        </mxCell>
        <mxCell id="5MQPCh5CGqPXgM4dFMeY-49" value="" style="endArrow=none;html=1;rounded=0;entryX=0.5;entryY=1;entryDx=0;entryDy=0;exitX=0.5;exitY=0;exitDx=0;exitDy=0;" parent="1" source="5MQPCh5CGqPXgM4dFMeY-50" target="5MQPCh5CGqPXgM4dFMeY-38" edge="1">
          <mxGeometry width="50" height="50" relative="1" as="geometry">
            <mxPoint x="1235" y="585" as="sourcePoint" />
            <mxPoint x="1180" y="595" as="targetPoint" />
          </mxGeometry>
        </mxCell>
        <mxCell id="5MQPCh5CGqPXgM4dFMeY-50" value="thuộc" style="rhombus;whiteSpace=wrap;html=1;" parent="1" vertex="1">
          <mxGeometry x="1206.25" y="575" width="57.5" height="40" as="geometry" />
        </mxCell>
        <mxCell id="5MQPCh5CGqPXgM4dFMeY-51" value="" style="endArrow=none;html=1;rounded=0;entryX=0.5;entryY=1;entryDx=0;entryDy=0;exitX=0.5;exitY=0;exitDx=0;exitDy=0;" parent="1" source="5MQPCh5CGqPXgM4dFMeY-52" target="5MQPCh5CGqPXgM4dFMeY-50" edge="1">
          <mxGeometry width="50" height="50" relative="1" as="geometry">
            <mxPoint x="1235" y="645" as="sourcePoint" />
            <mxPoint x="1180" y="665" as="targetPoint" />
          </mxGeometry>
        </mxCell>
        <mxCell id="5MQPCh5CGqPXgM4dFMeY-52" value="&lt;font color=&quot;#ffffff&quot;&gt;CHI TIẾT HÓA ĐƠN&lt;/font&gt;" style="rounded=0;whiteSpace=wrap;html=1;fillColor=#3AAD4C;" parent="1" vertex="1">
          <mxGeometry x="1180" y="635" width="110" height="50" as="geometry" />
        </mxCell>
        <mxCell id="5MQPCh5CGqPXgM4dFMeY-53" value="" style="endArrow=none;html=1;rounded=0;entryX=0;entryY=0.5;entryDx=0;entryDy=0;exitX=1;exitY=0.5;exitDx=0;exitDy=0;" parent="1" source="5MQPCh5CGqPXgM4dFMeY-54" target="5MQPCh5CGqPXgM4dFMeY-52" edge="1">
          <mxGeometry width="50" height="50" relative="1" as="geometry">
            <mxPoint x="1235" y="715" as="sourcePoint" />
            <mxPoint x="1320" y="475" as="targetPoint" />
            <Array as="points" />
          </mxGeometry>
        </mxCell>
        <mxCell id="5MQPCh5CGqPXgM4dFMeY-54" value="có" style="rhombus;whiteSpace=wrap;html=1;" parent="1" vertex="1">
          <mxGeometry x="1092.5" y="640" width="55" height="40" as="geometry" />
        </mxCell>
        <mxCell id="5MQPCh5CGqPXgM4dFMeY-56" value="&lt;font color=&quot;#ffffff&quot;&gt;HÓA ĐƠN&lt;/font&gt;" style="rounded=0;whiteSpace=wrap;html=1;fillColor=#3AAD4C;" parent="1" vertex="1">
          <mxGeometry x="-70" y="421.25" width="110" height="47.5" as="geometry" />
        </mxCell>
        <mxCell id="5MQPCh5CGqPXgM4dFMeY-57" value="&lt;font color=&quot;#ffffff&quot;&gt;KHUYẾN MÃI&lt;/font&gt;" style="rounded=0;whiteSpace=wrap;html=1;fillColor=#3AAD4C;" parent="1" vertex="1">
          <mxGeometry x="1000" y="219.75" width="110" height="49" as="geometry" />
        </mxCell>
        <mxCell id="5MQPCh5CGqPXgM4dFMeY-58" value="có" style="rhombus;whiteSpace=wrap;html=1;" parent="1" vertex="1">
          <mxGeometry x="910" y="225" width="55" height="40" as="geometry" />
        </mxCell>
        <mxCell id="5MQPCh5CGqPXgM4dFMeY-59" value="" style="endArrow=none;html=1;rounded=0;entryX=1;entryY=0.5;entryDx=0;entryDy=0;exitX=0;exitY=0.5;exitDx=0;exitDy=0;" parent="1" source="5MQPCh5CGqPXgM4dFMeY-57" target="5MQPCh5CGqPXgM4dFMeY-58" edge="1">
          <mxGeometry width="50" height="50" relative="1" as="geometry">
            <mxPoint x="520" y="410" as="sourcePoint" />
            <mxPoint x="570" y="360" as="targetPoint" />
          </mxGeometry>
        </mxCell>
        <mxCell id="5MQPCh5CGqPXgM4dFMeY-60" value="" style="endArrow=none;html=1;rounded=0;entryX=1;entryY=0.5;entryDx=0;entryDy=0;exitX=0;exitY=0.5;exitDx=0;exitDy=0;" parent="1" target="5MQPCh5CGqPXgM4dFMeY-52" edge="1">
          <mxGeometry width="50" height="50" relative="1" as="geometry">
            <mxPoint x="1340" y="660" as="sourcePoint" />
            <mxPoint x="1230" y="585" as="targetPoint" />
          </mxGeometry>
        </mxCell>
        <mxCell id="5MQPCh5CGqPXgM4dFMeY-61" value="" style="endArrow=none;html=1;rounded=0;entryX=0.5;entryY=0;entryDx=0;entryDy=0;exitX=0.5;exitY=1;exitDx=0;exitDy=0;" parent="1" source="5MQPCh5CGqPXgM4dFMeY-62" target="5MQPCh5CGqPXgM4dFMeY-56" edge="1">
          <mxGeometry width="50" height="50" relative="1" as="geometry">
            <mxPoint x="-15" y="380" as="sourcePoint" />
            <mxPoint x="290" y="220" as="targetPoint" />
          </mxGeometry>
        </mxCell>
        <mxCell id="5MQPCh5CGqPXgM4dFMeY-62" value="có" style="rhombus;whiteSpace=wrap;html=1;" parent="1" vertex="1">
          <mxGeometry x="-42.5" y="355" width="55" height="40" as="geometry" />
        </mxCell>
        <mxCell id="5MQPCh5CGqPXgM4dFMeY-63" value="" style="endArrow=none;html=1;rounded=0;exitX=0.5;exitY=0;exitDx=0;exitDy=0;entryX=0.5;entryY=1;entryDx=0;entryDy=0;" parent="1" source="5MQPCh5CGqPXgM4dFMeY-62" target="5MQPCh5CGqPXgM4dFMeY-64" edge="1">
          <mxGeometry width="50" height="50" relative="1" as="geometry">
            <mxPoint x="50" y="455" as="sourcePoint" />
            <mxPoint x="-15" y="330" as="targetPoint" />
          </mxGeometry>
        </mxCell>
        <mxCell id="5MQPCh5CGqPXgM4dFMeY-64" value="&lt;b&gt;&lt;font color=&quot;#ffffff&quot;&gt;KHÁCH HÀNG&lt;/font&gt;&lt;/b&gt;" style="rounded=0;whiteSpace=wrap;html=1;fillColor=#3AAD4C;" parent="1" vertex="1">
          <mxGeometry x="-70" y="270" width="110" height="50" as="geometry" />
        </mxCell>
        <mxCell id="5MQPCh5CGqPXgM4dFMeY-66" value="" style="endArrow=none;html=1;rounded=0;entryX=1;entryY=0.5;entryDx=0;entryDy=0;exitX=0.25;exitY=0;exitDx=0;exitDy=0;" parent="1" source="5MQPCh5CGqPXgM4dFMeY-38" target="5MQPCh5CGqPXgM4dFMeY-30" edge="1">
          <mxGeometry width="50" height="50" relative="1" as="geometry">
            <mxPoint x="1250" y="485" as="sourcePoint" />
            <mxPoint x="1300" y="435" as="targetPoint" />
          </mxGeometry>
        </mxCell>
        <mxCell id="5MQPCh5CGqPXgM4dFMeY-67" value="" style="endArrow=none;html=1;rounded=0;exitX=0.68;exitY=-0.016;exitDx=0;exitDy=0;exitPerimeter=0;" parent="1" source="5MQPCh5CGqPXgM4dFMeY-27" edge="1">
          <mxGeometry width="50" height="50" relative="1" as="geometry">
            <mxPoint x="1250" y="485" as="sourcePoint" />
            <mxPoint x="1200" y="545" as="targetPoint" />
          </mxGeometry>
        </mxCell>
        <mxCell id="5MQPCh5CGqPXgM4dFMeY-68" value="" style="endArrow=none;html=1;rounded=0;exitX=1;exitY=0.5;exitDx=0;exitDy=0;entryX=0;entryY=0.5;entryDx=0;entryDy=0;" parent="1" source="5MQPCh5CGqPXgM4dFMeY-28" target="5MQPCh5CGqPXgM4dFMeY-38" edge="1">
          <mxGeometry width="50" height="50" relative="1" as="geometry">
            <mxPoint x="1250" y="485" as="sourcePoint" />
            <mxPoint x="1300" y="435" as="targetPoint" />
          </mxGeometry>
        </mxCell>
        <mxCell id="5MQPCh5CGqPXgM4dFMeY-69" value="" style="endArrow=none;html=1;rounded=0;entryX=1;entryY=0.5;entryDx=0;entryDy=0;exitX=0;exitY=0.25;exitDx=0;exitDy=0;" parent="1" source="5MQPCh5CGqPXgM4dFMeY-38" target="5MQPCh5CGqPXgM4dFMeY-29" edge="1">
          <mxGeometry width="50" height="50" relative="1" as="geometry">
            <mxPoint x="1250" y="485" as="sourcePoint" />
            <mxPoint x="1300" y="435" as="targetPoint" />
          </mxGeometry>
        </mxCell>
        <mxCell id="5MQPCh5CGqPXgM4dFMeY-70" value="" style="endArrow=none;html=1;rounded=0;entryX=1;entryY=0.5;entryDx=0;entryDy=0;exitX=0;exitY=0.5;exitDx=0;exitDy=0;" parent="1" target="5MQPCh5CGqPXgM4dFMeY-38" edge="1">
          <mxGeometry width="50" height="50" relative="1" as="geometry">
            <mxPoint x="1330" y="520" as="sourcePoint" />
            <mxPoint x="1300" y="435" as="targetPoint" />
          </mxGeometry>
        </mxCell>
        <mxCell id="5MQPCh5CGqPXgM4dFMeY-71" value="thuộc" style="rhombus;whiteSpace=wrap;html=1;" parent="1" vertex="1">
          <mxGeometry x="900" y="80" width="57.5" height="50" as="geometry" />
        </mxCell>
        <mxCell id="5MQPCh5CGqPXgM4dFMeY-73" value="" style="endArrow=none;html=1;rounded=0;exitX=1;exitY=0.5;exitDx=0;exitDy=0;entryX=0;entryY=0.5;entryDx=0;entryDy=0;" parent="1" source="5MQPCh5CGqPXgM4dFMeY-71" target="5MQPCh5CGqPXgM4dFMeY-74" edge="1">
          <mxGeometry width="50" height="50" relative="1" as="geometry">
            <mxPoint x="1030" y="130" as="sourcePoint" />
            <mxPoint x="990" y="105" as="targetPoint" />
            <Array as="points" />
          </mxGeometry>
        </mxCell>
        <mxCell id="5MQPCh5CGqPXgM4dFMeY-74" value="&lt;font color=&quot;#ffffff&quot;&gt;CHI TIẾT PGH&lt;/font&gt;" style="rounded=0;whiteSpace=wrap;html=1;fillColor=#3AAD4C;" parent="1" vertex="1">
          <mxGeometry x="990" y="80" width="110" height="50" as="geometry" />
        </mxCell>
        <mxCell id="5MQPCh5CGqPXgM4dFMeY-76" value="" style="endArrow=none;html=1;rounded=0;exitX=0.5;exitY=0;exitDx=0;exitDy=0;entryX=0.5;entryY=1;entryDx=0;entryDy=0;" parent="1" source="5MQPCh5CGqPXgM4dFMeY-74" edge="1">
          <mxGeometry width="50" height="50" relative="1" as="geometry">
            <mxPoint x="960" y="10" as="sourcePoint" />
            <mxPoint x="1045" y="48" as="targetPoint" />
          </mxGeometry>
        </mxCell>
        <mxCell id="5MQPCh5CGqPXgM4dFMeY-77" value="có" style="rhombus;whiteSpace=wrap;html=1;" parent="1" vertex="1">
          <mxGeometry x="685" y="-22" width="60" height="40" as="geometry" />
        </mxCell>
        <mxCell id="5MQPCh5CGqPXgM4dFMeY-78" value="" style="endArrow=none;html=1;rounded=0;exitX=0.5;exitY=0;exitDx=0;exitDy=0;entryX=0.5;entryY=1;entryDx=0;entryDy=0;" parent="1" source="5MQPCh5CGqPXgM4dFMeY-77" target="5MQPCh5CGqPXgM4dFMeY-79" edge="1">
          <mxGeometry width="50" height="50" relative="1" as="geometry">
            <mxPoint x="640" y="-50" as="sourcePoint" />
            <mxPoint x="690" y="-100" as="targetPoint" />
          </mxGeometry>
        </mxCell>
        <mxCell id="5MQPCh5CGqPXgM4dFMeY-79" value="&lt;b&gt;&lt;font color=&quot;#ffffff&quot;&gt;PHIẾU GIAO HÀNG&lt;/font&gt;&lt;/b&gt;" style="rounded=0;whiteSpace=wrap;html=1;fillColor=#3AAD4C;" parent="1" vertex="1">
          <mxGeometry x="660" y="-110" width="110" height="48" as="geometry" />
        </mxCell>
        <mxCell id="5MQPCh5CGqPXgM4dFMeY-80" value="MaSP" style="ellipse;whiteSpace=wrap;html=1;" parent="1" vertex="1">
          <mxGeometry x="1140" y="80" width="70" height="30" as="geometry" />
        </mxCell>
        <mxCell id="5MQPCh5CGqPXgM4dFMeY-81" value="MaPGH" style="ellipse;whiteSpace=wrap;html=1;" parent="1" vertex="1">
          <mxGeometry x="1110" y="40" width="75" height="35" as="geometry" />
        </mxCell>
        <mxCell id="5MQPCh5CGqPXgM4dFMeY-82" value="MaDDH" style="ellipse;whiteSpace=wrap;html=1;" parent="1" vertex="1">
          <mxGeometry x="790" y="-40" width="100" height="25" as="geometry" />
        </mxCell>
        <mxCell id="5MQPCh5CGqPXgM4dFMeY-83" value="TinhTrangGiaoHang" style="ellipse;whiteSpace=wrap;html=1;" parent="1" vertex="1">
          <mxGeometry x="810" y="322.5" width="120" height="45" as="geometry" />
        </mxCell>
        <mxCell id="5MQPCh5CGqPXgM4dFMeY-84" value="NgayGiaoHang" style="ellipse;whiteSpace=wrap;html=1;" parent="1" vertex="1">
          <mxGeometry x="790" y="-150" width="90" height="50" as="geometry" />
        </mxCell>
        <mxCell id="5MQPCh5CGqPXgM4dFMeY-85" value="&lt;b&gt;&lt;u&gt;MaPGH&lt;/u&gt;&lt;/b&gt;" style="ellipse;whiteSpace=wrap;html=1;" parent="1" vertex="1">
          <mxGeometry x="750" y="-180" width="70" height="30" as="geometry" />
        </mxCell>
        <mxCell id="5MQPCh5CGqPXgM4dFMeY-87" value="" style="endArrow=none;html=1;rounded=0;entryX=0;entryY=0.5;entryDx=0;entryDy=0;exitX=0.75;exitY=1;exitDx=0;exitDy=0;" parent="1" source="5MQPCh5CGqPXgM4dFMeY-79" target="5MQPCh5CGqPXgM4dFMeY-82" edge="1">
          <mxGeometry width="50" height="50" relative="1" as="geometry">
            <mxPoint x="490" y="30" as="sourcePoint" />
            <mxPoint x="540" y="-20" as="targetPoint" />
          </mxGeometry>
        </mxCell>
        <mxCell id="5MQPCh5CGqPXgM4dFMeY-88" value="" style="endArrow=none;html=1;rounded=0;entryX=0;entryY=0.5;entryDx=0;entryDy=0;exitX=1;exitY=0.5;exitDx=0;exitDy=0;" parent="1" source="5MQPCh5CGqPXgM4dFMeY-79" edge="1">
          <mxGeometry width="50" height="50" relative="1" as="geometry">
            <mxPoint x="490" y="30" as="sourcePoint" />
            <mxPoint x="810" y="-75" as="targetPoint" />
          </mxGeometry>
        </mxCell>
        <mxCell id="5MQPCh5CGqPXgM4dFMeY-89" value="" style="endArrow=none;html=1;rounded=0;entryX=0;entryY=0.5;entryDx=0;entryDy=0;exitX=0.75;exitY=0;exitDx=0;exitDy=0;" parent="1" source="5MQPCh5CGqPXgM4dFMeY-79" target="5MQPCh5CGqPXgM4dFMeY-84" edge="1">
          <mxGeometry width="50" height="50" relative="1" as="geometry">
            <mxPoint x="490" y="30" as="sourcePoint" />
            <mxPoint x="540" y="-20" as="targetPoint" />
          </mxGeometry>
        </mxCell>
        <mxCell id="5MQPCh5CGqPXgM4dFMeY-90" value="" style="endArrow=none;html=1;rounded=0;entryX=0;entryY=1;entryDx=0;entryDy=0;exitX=0.5;exitY=0;exitDx=0;exitDy=0;" parent="1" source="5MQPCh5CGqPXgM4dFMeY-79" target="5MQPCh5CGqPXgM4dFMeY-85" edge="1">
          <mxGeometry width="50" height="50" relative="1" as="geometry">
            <mxPoint x="490" y="30" as="sourcePoint" />
            <mxPoint x="540" y="-20" as="targetPoint" />
          </mxGeometry>
        </mxCell>
        <mxCell id="5MQPCh5CGqPXgM4dFMeY-92" value="SoLuong" style="ellipse;whiteSpace=wrap;html=1;" parent="1" vertex="1">
          <mxGeometry x="1145" y="115" width="70" height="35" as="geometry" />
        </mxCell>
        <mxCell id="5MQPCh5CGqPXgM4dFMeY-93" value="GiaTien" style="ellipse;whiteSpace=wrap;html=1;" parent="1" vertex="1">
          <mxGeometry x="1097.5" y="145" width="70" height="40" as="geometry" />
        </mxCell>
        <mxCell id="5MQPCh5CGqPXgM4dFMeY-95" value="" style="endArrow=none;html=1;rounded=0;entryX=0.028;entryY=0.339;entryDx=0;entryDy=0;entryPerimeter=0;exitX=0.5;exitY=1;exitDx=0;exitDy=0;" parent="1" source="5MQPCh5CGqPXgM4dFMeY-74" target="5MQPCh5CGqPXgM4dFMeY-93" edge="1">
          <mxGeometry width="50" height="50" relative="1" as="geometry">
            <mxPoint x="820" y="60" as="sourcePoint" />
            <mxPoint x="870" y="10" as="targetPoint" />
          </mxGeometry>
        </mxCell>
        <mxCell id="5MQPCh5CGqPXgM4dFMeY-96" value="" style="endArrow=none;html=1;rounded=0;entryX=0;entryY=0.5;entryDx=0;entryDy=0;exitX=1;exitY=1;exitDx=0;exitDy=0;" parent="1" source="5MQPCh5CGqPXgM4dFMeY-74" target="5MQPCh5CGqPXgM4dFMeY-92" edge="1">
          <mxGeometry width="50" height="50" relative="1" as="geometry">
            <mxPoint x="820" y="60" as="sourcePoint" />
            <mxPoint x="870" y="10" as="targetPoint" />
          </mxGeometry>
        </mxCell>
        <mxCell id="5MQPCh5CGqPXgM4dFMeY-97" value="" style="endArrow=none;html=1;rounded=0;entryX=0;entryY=0.5;entryDx=0;entryDy=0;exitX=1;exitY=0.5;exitDx=0;exitDy=0;" parent="1" source="5MQPCh5CGqPXgM4dFMeY-74" target="5MQPCh5CGqPXgM4dFMeY-80" edge="1">
          <mxGeometry width="50" height="50" relative="1" as="geometry">
            <mxPoint x="820" y="60" as="sourcePoint" />
            <mxPoint x="870" y="10" as="targetPoint" />
          </mxGeometry>
        </mxCell>
        <mxCell id="5MQPCh5CGqPXgM4dFMeY-98" value="" style="endArrow=none;html=1;rounded=0;entryX=0;entryY=0.5;entryDx=0;entryDy=0;exitX=0.75;exitY=0;exitDx=0;exitDy=0;" parent="1" source="5MQPCh5CGqPXgM4dFMeY-74" target="5MQPCh5CGqPXgM4dFMeY-81" edge="1">
          <mxGeometry width="50" height="50" relative="1" as="geometry">
            <mxPoint x="930" y="20" as="sourcePoint" />
            <mxPoint x="980" y="-30" as="targetPoint" />
          </mxGeometry>
        </mxCell>
        <mxCell id="5MQPCh5CGqPXgM4dFMeY-99" value="GiamGia" style="ellipse;whiteSpace=wrap;html=1;" parent="1" vertex="1">
          <mxGeometry x="920" y="285" width="80" height="30" as="geometry" />
        </mxCell>
        <mxCell id="5MQPCh5CGqPXgM4dFMeY-100" value="NgayKetThuc" style="ellipse;whiteSpace=wrap;html=1;" parent="1" vertex="1">
          <mxGeometry x="1000" y="295" width="80" height="30" as="geometry" />
        </mxCell>
        <mxCell id="5MQPCh5CGqPXgM4dFMeY-101" value="NgayBatDau" style="ellipse;whiteSpace=wrap;html=1;" parent="1" vertex="1">
          <mxGeometry x="1085" y="285" width="80" height="40" as="geometry" />
        </mxCell>
        <mxCell id="5MQPCh5CGqPXgM4dFMeY-102" value="TenKM" style="ellipse;whiteSpace=wrap;html=1;" parent="1" vertex="1">
          <mxGeometry x="1120" y="255" width="80" height="30" as="geometry" />
        </mxCell>
        <mxCell id="5MQPCh5CGqPXgM4dFMeY-103" value="&lt;b&gt;&lt;u&gt;MaKM&lt;/u&gt;&lt;/b&gt;" style="ellipse;whiteSpace=wrap;html=1;" parent="1" vertex="1">
          <mxGeometry x="1130" y="210" width="60" height="35" as="geometry" />
        </mxCell>
        <mxCell id="5MQPCh5CGqPXgM4dFMeY-105" value="" style="endArrow=none;html=1;rounded=0;entryX=0.5;entryY=1;entryDx=0;entryDy=0;exitX=0.5;exitY=0;exitDx=0;exitDy=0;" parent="1" source="5MQPCh5CGqPXgM4dFMeY-64" target="5MQPCh5CGqPXgM4dFMeY-131" edge="1">
          <mxGeometry width="50" height="50" relative="1" as="geometry">
            <mxPoint x="240" y="260" as="sourcePoint" />
            <mxPoint x="290" y="210" as="targetPoint" />
          </mxGeometry>
        </mxCell>
        <mxCell id="5MQPCh5CGqPXgM4dFMeY-106" value="" style="endArrow=none;html=1;rounded=0;exitX=1;exitY=0;exitDx=0;exitDy=0;entryX=0.25;entryY=1;entryDx=0;entryDy=0;" parent="1" target="5MQPCh5CGqPXgM4dFMeY-56" edge="1">
          <mxGeometry width="50" height="50" relative="1" as="geometry">
            <mxPoint x="-57.859135639931765" y="499.0653850056883" as="sourcePoint" />
            <mxPoint x="290" y="210" as="targetPoint" />
          </mxGeometry>
        </mxCell>
        <mxCell id="5MQPCh5CGqPXgM4dFMeY-107" value="" style="endArrow=none;html=1;rounded=0;entryX=0;entryY=1;entryDx=0;entryDy=0;exitX=1;exitY=0;exitDx=0;exitDy=0;" parent="1" source="5MQPCh5CGqPXgM4dFMeY-99" target="5MQPCh5CGqPXgM4dFMeY-57" edge="1">
          <mxGeometry width="50" height="50" relative="1" as="geometry">
            <mxPoint x="820" y="60" as="sourcePoint" />
            <mxPoint x="870" y="10" as="targetPoint" />
            <Array as="points" />
          </mxGeometry>
        </mxCell>
        <mxCell id="5MQPCh5CGqPXgM4dFMeY-108" value="" style="endArrow=none;html=1;rounded=0;entryX=0.5;entryY=1;entryDx=0;entryDy=0;exitX=0.5;exitY=0;exitDx=0;exitDy=0;" parent="1" source="5MQPCh5CGqPXgM4dFMeY-100" target="5MQPCh5CGqPXgM4dFMeY-57" edge="1">
          <mxGeometry width="50" height="50" relative="1" as="geometry">
            <mxPoint x="820" y="60" as="sourcePoint" />
            <mxPoint x="870" y="10" as="targetPoint" />
          </mxGeometry>
        </mxCell>
        <mxCell id="5MQPCh5CGqPXgM4dFMeY-109" value="" style="endArrow=none;html=1;rounded=0;entryX=0;entryY=0;entryDx=0;entryDy=0;exitX=0.75;exitY=1;exitDx=0;exitDy=0;" parent="1" source="5MQPCh5CGqPXgM4dFMeY-57" target="5MQPCh5CGqPXgM4dFMeY-101" edge="1">
          <mxGeometry width="50" height="50" relative="1" as="geometry">
            <mxPoint x="820" y="60" as="sourcePoint" />
            <mxPoint x="870" y="10" as="targetPoint" />
          </mxGeometry>
        </mxCell>
        <mxCell id="5MQPCh5CGqPXgM4dFMeY-110" value="" style="endArrow=none;html=1;rounded=0;entryX=0;entryY=0.5;entryDx=0;entryDy=0;exitX=1;exitY=0.5;exitDx=0;exitDy=0;" parent="1" source="5MQPCh5CGqPXgM4dFMeY-57" target="5MQPCh5CGqPXgM4dFMeY-102" edge="1">
          <mxGeometry width="50" height="50" relative="1" as="geometry">
            <mxPoint x="820" y="60" as="sourcePoint" />
            <mxPoint x="870" y="10" as="targetPoint" />
          </mxGeometry>
        </mxCell>
        <mxCell id="5MQPCh5CGqPXgM4dFMeY-111" value="" style="endArrow=none;html=1;rounded=0;entryX=0;entryY=0.5;entryDx=0;entryDy=0;exitX=1;exitY=0.5;exitDx=0;exitDy=0;" parent="1" source="5MQPCh5CGqPXgM4dFMeY-57" target="5MQPCh5CGqPXgM4dFMeY-103" edge="1">
          <mxGeometry width="50" height="50" relative="1" as="geometry">
            <mxPoint x="820" y="60" as="sourcePoint" />
            <mxPoint x="870" y="10" as="targetPoint" />
          </mxGeometry>
        </mxCell>
        <mxCell id="5MQPCh5CGqPXgM4dFMeY-112" value="GiaTien" style="ellipse;whiteSpace=wrap;html=1;" parent="1" vertex="1">
          <mxGeometry x="1100" y="695" width="70" height="30" as="geometry" />
        </mxCell>
        <mxCell id="5MQPCh5CGqPXgM4dFMeY-113" value="SoLuong" style="ellipse;whiteSpace=wrap;html=1;" parent="1" vertex="1">
          <mxGeometry x="1136.25" y="725" width="70" height="30" as="geometry" />
        </mxCell>
        <mxCell id="5MQPCh5CGqPXgM4dFMeY-114" value="MaSP" style="ellipse;whiteSpace=wrap;html=1;" parent="1" vertex="1">
          <mxGeometry x="1230" y="785" width="80" height="30" as="geometry" />
        </mxCell>
        <mxCell id="5MQPCh5CGqPXgM4dFMeY-115" value="MaHD" style="ellipse;whiteSpace=wrap;html=1;" parent="1" vertex="1">
          <mxGeometry x="1206.25" y="735" width="53.75" height="35" as="geometry" />
        </mxCell>
        <mxCell id="5MQPCh5CGqPXgM4dFMeY-116" value="" style="endArrow=none;html=1;rounded=0;exitX=1;exitY=0;exitDx=0;exitDy=0;entryX=0;entryY=1;entryDx=0;entryDy=0;" parent="1" source="5MQPCh5CGqPXgM4dFMeY-112" target="5MQPCh5CGqPXgM4dFMeY-52" edge="1">
          <mxGeometry width="50" height="50" relative="1" as="geometry">
            <mxPoint x="1250" y="475" as="sourcePoint" />
            <mxPoint x="1300" y="425" as="targetPoint" />
          </mxGeometry>
        </mxCell>
        <mxCell id="5MQPCh5CGqPXgM4dFMeY-117" value="" style="endArrow=none;html=1;rounded=0;entryX=1;entryY=0;entryDx=0;entryDy=0;exitX=0.25;exitY=1;exitDx=0;exitDy=0;" parent="1" source="5MQPCh5CGqPXgM4dFMeY-52" target="5MQPCh5CGqPXgM4dFMeY-113" edge="1">
          <mxGeometry width="50" height="50" relative="1" as="geometry">
            <mxPoint x="1250" y="475" as="sourcePoint" />
            <mxPoint x="1300" y="425" as="targetPoint" />
          </mxGeometry>
        </mxCell>
        <mxCell id="5MQPCh5CGqPXgM4dFMeY-118" value="" style="endArrow=none;html=1;rounded=0;entryX=0.5;entryY=1;entryDx=0;entryDy=0;" parent="1" source="5MQPCh5CGqPXgM4dFMeY-115" target="5MQPCh5CGqPXgM4dFMeY-52" edge="1">
          <mxGeometry width="50" height="50" relative="1" as="geometry">
            <mxPoint x="1250" y="475" as="sourcePoint" />
            <mxPoint x="1300" y="425" as="targetPoint" />
          </mxGeometry>
        </mxCell>
        <mxCell id="5MQPCh5CGqPXgM4dFMeY-119" value="" style="endArrow=none;html=1;rounded=0;entryX=0.5;entryY=0;entryDx=0;entryDy=0;exitX=0.75;exitY=1;exitDx=0;exitDy=0;" parent="1" source="5MQPCh5CGqPXgM4dFMeY-52" target="5MQPCh5CGqPXgM4dFMeY-114" edge="1">
          <mxGeometry width="50" height="50" relative="1" as="geometry">
            <mxPoint x="1250" y="475" as="sourcePoint" />
            <mxPoint x="1300" y="425" as="targetPoint" />
          </mxGeometry>
        </mxCell>
        <mxCell id="5MQPCh5CGqPXgM4dFMeY-121" value="&lt;b&gt;&lt;u&gt;SDTKH&lt;/u&gt;&lt;/b&gt;" style="ellipse;whiteSpace=wrap;html=1;" parent="1" vertex="1">
          <mxGeometry x="-102.5" y="220" width="52.5" height="35" as="geometry" />
        </mxCell>
        <mxCell id="5MQPCh5CGqPXgM4dFMeY-123" value="SDTKH" style="ellipse;whiteSpace=wrap;html=1;" parent="1" vertex="1">
          <mxGeometry x="-130" y="380" width="70" height="30" as="geometry" />
        </mxCell>
        <mxCell id="5MQPCh5CGqPXgM4dFMeY-124" value="TongTien" style="ellipse;whiteSpace=wrap;html=1;" parent="1" vertex="1">
          <mxGeometry x="-160" y="425" width="70" height="30" as="geometry" />
        </mxCell>
        <mxCell id="5MQPCh5CGqPXgM4dFMeY-125" value="NgayLap" style="ellipse;whiteSpace=wrap;html=1;" parent="1" vertex="1">
          <mxGeometry x="-150" y="465" width="70" height="30" as="geometry" />
        </mxCell>
        <mxCell id="5MQPCh5CGqPXgM4dFMeY-126" value="&lt;b&gt;&lt;u&gt;MaHD&lt;/u&gt;&lt;/b&gt;" style="ellipse;whiteSpace=wrap;html=1;" parent="1" vertex="1">
          <mxGeometry x="140" y="685" width="60" height="25" as="geometry" />
        </mxCell>
        <mxCell id="5MQPCh5CGqPXgM4dFMeY-128" value="" style="endArrow=none;html=1;rounded=0;exitX=1;exitY=0.5;exitDx=0;exitDy=0;entryX=0.25;entryY=1;entryDx=0;entryDy=0;" parent="1" source="5MQPCh5CGqPXgM4dFMeY-125" target="5MQPCh5CGqPXgM4dFMeY-56" edge="1">
          <mxGeometry width="50" height="50" relative="1" as="geometry">
            <mxPoint x="240" y="260" as="sourcePoint" />
            <mxPoint x="290" y="210" as="targetPoint" />
          </mxGeometry>
        </mxCell>
        <mxCell id="5MQPCh5CGqPXgM4dFMeY-129" value="" style="endArrow=none;html=1;rounded=0;exitX=1;exitY=0.5;exitDx=0;exitDy=0;entryX=0;entryY=0.5;entryDx=0;entryDy=0;" parent="1" source="5MQPCh5CGqPXgM4dFMeY-124" target="5MQPCh5CGqPXgM4dFMeY-56" edge="1">
          <mxGeometry width="50" height="50" relative="1" as="geometry">
            <mxPoint x="240" y="260" as="sourcePoint" />
            <mxPoint x="290" y="210" as="targetPoint" />
          </mxGeometry>
        </mxCell>
        <mxCell id="5MQPCh5CGqPXgM4dFMeY-130" value="" style="endArrow=none;html=1;rounded=0;exitX=1;exitY=0.5;exitDx=0;exitDy=0;entryX=0.25;entryY=0;entryDx=0;entryDy=0;" parent="1" source="5MQPCh5CGqPXgM4dFMeY-123" target="5MQPCh5CGqPXgM4dFMeY-56" edge="1">
          <mxGeometry width="50" height="50" relative="1" as="geometry">
            <mxPoint x="40" y="410" as="sourcePoint" />
            <mxPoint x="90" y="360" as="targetPoint" />
          </mxGeometry>
        </mxCell>
        <mxCell id="5MQPCh5CGqPXgM4dFMeY-131" value="TenKH" style="ellipse;whiteSpace=wrap;html=1;" parent="1" vertex="1">
          <mxGeometry x="-20" y="225" width="70" height="30" as="geometry" />
        </mxCell>
        <mxCell id="5MQPCh5CGqPXgM4dFMeY-132" value="" style="endArrow=none;html=1;rounded=0;entryX=0.5;entryY=1;entryDx=0;entryDy=0;exitX=0.5;exitY=0;exitDx=0;exitDy=0;" parent="1" source="5MQPCh5CGqPXgM4dFMeY-64" target="5MQPCh5CGqPXgM4dFMeY-121" edge="1">
          <mxGeometry width="50" height="50" relative="1" as="geometry">
            <mxPoint x="240" y="260" as="sourcePoint" />
            <mxPoint x="290" y="210" as="targetPoint" />
          </mxGeometry>
        </mxCell>
        <mxCell id="ZJF9FPDe5cOuJZR0szhD-16" value="(1,n)" style="text;html=1;strokeColor=none;fillColor=none;align=center;verticalAlign=middle;whiteSpace=wrap;rounded=0;" parent="1" vertex="1">
          <mxGeometry x="280" y="140" width="30" height="30" as="geometry" />
        </mxCell>
        <mxCell id="ZJF9FPDe5cOuJZR0szhD-18" value="(1,1)" style="text;html=1;strokeColor=none;fillColor=none;align=center;verticalAlign=middle;whiteSpace=wrap;rounded=0;" parent="1" vertex="1">
          <mxGeometry x="380" y="140" width="30" height="30" as="geometry" />
        </mxCell>
        <mxCell id="ZJF9FPDe5cOuJZR0szhD-20" value="(1,n)" style="text;html=1;strokeColor=none;fillColor=none;align=center;verticalAlign=middle;whiteSpace=wrap;rounded=0;rotation=0;" parent="1" vertex="1">
          <mxGeometry x="-10" y="325" width="30" height="30" as="geometry" />
        </mxCell>
        <mxCell id="ZJF9FPDe5cOuJZR0szhD-21" value="(1,1)" style="text;html=1;strokeColor=none;fillColor=none;align=center;verticalAlign=middle;whiteSpace=wrap;rounded=0;rotation=0;" parent="1" vertex="1">
          <mxGeometry x="-10" y="389.75" width="30" height="30" as="geometry" />
        </mxCell>
        <mxCell id="ZJF9FPDe5cOuJZR0szhD-22" value="(1,1)" style="text;html=1;strokeColor=none;fillColor=none;align=center;verticalAlign=middle;whiteSpace=wrap;rounded=0;rotation=0;" parent="1" vertex="1">
          <mxGeometry x="480" y="273.5" width="30" height="30" as="geometry" />
        </mxCell>
        <mxCell id="ZJF9FPDe5cOuJZR0szhD-23" value="(1,n)" style="text;html=1;strokeColor=none;fillColor=none;align=center;verticalAlign=middle;whiteSpace=wrap;rounded=0;" parent="1" vertex="1">
          <mxGeometry x="480" y="200" width="30" height="30" as="geometry" />
        </mxCell>
        <mxCell id="ZJF9FPDe5cOuJZR0szhD-24" value="(1,n)" style="text;html=1;strokeColor=none;fillColor=none;align=center;verticalAlign=middle;whiteSpace=wrap;rounded=0;" parent="1" vertex="1">
          <mxGeometry x="1202.5" y="455" width="30" height="30" as="geometry" />
        </mxCell>
        <mxCell id="ZJF9FPDe5cOuJZR0szhD-25" value="(1,1)" style="text;html=1;strokeColor=none;fillColor=none;align=center;verticalAlign=middle;whiteSpace=wrap;rounded=0;" parent="1" vertex="1">
          <mxGeometry x="440" y="362.5" width="30" height="30" as="geometry" />
        </mxCell>
        <mxCell id="ZJF9FPDe5cOuJZR0szhD-26" value="(1,n)" style="text;html=1;strokeColor=none;fillColor=none;align=center;verticalAlign=middle;whiteSpace=wrap;rounded=0;" parent="1" vertex="1">
          <mxGeometry x="1237.5" y="545" width="30" height="30" as="geometry" />
        </mxCell>
        <mxCell id="ZJF9FPDe5cOuJZR0szhD-27" value="(1,1)" style="text;html=1;strokeColor=none;fillColor=none;align=center;verticalAlign=middle;whiteSpace=wrap;rounded=0;" parent="1" vertex="1">
          <mxGeometry x="1240" y="604.75" width="30" height="30" as="geometry" />
        </mxCell>
        <mxCell id="ZJF9FPDe5cOuJZR0szhD-28" value="(1,1)" style="text;html=1;strokeColor=none;fillColor=none;align=center;verticalAlign=middle;whiteSpace=wrap;rounded=0;" parent="1" vertex="1">
          <mxGeometry x="1145" y="634" width="30" height="30" as="geometry" />
        </mxCell>
        <mxCell id="ZJF9FPDe5cOuJZR0szhD-29" value="(1,n)" style="text;html=1;strokeColor=none;fillColor=none;align=center;verticalAlign=middle;whiteSpace=wrap;rounded=0;" parent="1" vertex="1">
          <mxGeometry x="1060" y="634" width="30" height="30" as="geometry" />
        </mxCell>
        <mxCell id="ZJF9FPDe5cOuJZR0szhD-31" value="(0,1)" style="text;html=1;strokeColor=none;fillColor=none;align=center;verticalAlign=middle;whiteSpace=wrap;rounded=0;" parent="1" vertex="1">
          <mxGeometry x="1295" y="634" width="30" height="30" as="geometry" />
        </mxCell>
        <mxCell id="ZJF9FPDe5cOuJZR0szhD-32" value="(1,n)" style="text;html=1;strokeColor=none;fillColor=none;align=center;verticalAlign=middle;whiteSpace=wrap;rounded=0;" parent="1" vertex="1">
          <mxGeometry x="965" y="219" width="30" height="30" as="geometry" />
        </mxCell>
        <mxCell id="ZJF9FPDe5cOuJZR0szhD-33" value="(1,n)" style="text;html=1;strokeColor=none;fillColor=none;align=center;verticalAlign=middle;whiteSpace=wrap;rounded=0;" parent="1" vertex="1">
          <mxGeometry x="1295" y="495" width="30" height="30" as="geometry" />
        </mxCell>
        <mxCell id="ZJF9FPDe5cOuJZR0szhD-34" value="(1,1)" style="text;html=1;strokeColor=none;fillColor=none;align=center;verticalAlign=middle;whiteSpace=wrap;rounded=0;" parent="1" vertex="1">
          <mxGeometry x="957.5" y="80" width="30" height="30" as="geometry" />
        </mxCell>
        <mxCell id="ZJF9FPDe5cOuJZR0szhD-35" value="(1,n)" style="text;html=1;strokeColor=none;fillColor=none;align=center;verticalAlign=middle;whiteSpace=wrap;rounded=0;" parent="1" vertex="1">
          <mxGeometry x="680" y="-57.5" width="30" height="30" as="geometry" />
        </mxCell>
        <mxCell id="ZJF9FPDe5cOuJZR0szhD-36" value="(1,1)" style="text;html=1;strokeColor=none;fillColor=none;align=center;verticalAlign=middle;whiteSpace=wrap;rounded=0;" parent="1" vertex="1">
          <mxGeometry x="1010" y="45" width="30" height="30" as="geometry" />
        </mxCell>
        <mxCell id="Ajl2_Fg5Av_l7NtDkMye-3" value="MaDDH" style="ellipse;whiteSpace=wrap;html=1;rotation=0;" parent="1" vertex="1">
          <mxGeometry x="550" y="298.5" width="60" height="25" as="geometry" />
        </mxCell>
        <mxCell id="Ajl2_Fg5Av_l7NtDkMye-4" value="" style="endArrow=none;html=1;rounded=0;entryX=0;entryY=0.5;entryDx=0;entryDy=0;exitX=1;exitY=0;exitDx=0;exitDy=0;" parent="1" target="Ajl2_Fg5Av_l7NtDkMye-3" edge="1">
          <mxGeometry width="50" height="50" relative="1" as="geometry">
            <mxPoint x="530" y="328.5" as="sourcePoint" />
            <mxPoint x="636.25" y="287" as="targetPoint" />
          </mxGeometry>
        </mxCell>
        <mxCell id="Ajl2_Fg5Av_l7NtDkMye-6" value="&lt;b&gt;&lt;u&gt;MaCTHD&lt;/u&gt;&lt;/b&gt;" style="ellipse;whiteSpace=wrap;html=1;" parent="1" vertex="1">
          <mxGeometry x="1276.25" y="730" width="53.75" height="35" as="geometry" />
        </mxCell>
        <mxCell id="Ajl2_Fg5Av_l7NtDkMye-7" value="" style="endArrow=none;html=1;rounded=0;entryX=1;entryY=1;entryDx=0;entryDy=0;" parent="1" source="Ajl2_Fg5Av_l7NtDkMye-6" target="5MQPCh5CGqPXgM4dFMeY-52" edge="1">
          <mxGeometry width="50" height="50" relative="1" as="geometry">
            <mxPoint x="1320" y="472.5" as="sourcePoint" />
            <mxPoint x="1305" y="682.5" as="targetPoint" />
          </mxGeometry>
        </mxCell>
        <mxCell id="Ajl2_Fg5Av_l7NtDkMye-8" value="&lt;b&gt;&lt;u&gt;MaCTPGH&lt;/u&gt;&lt;/b&gt;" style="ellipse;whiteSpace=wrap;html=1;" parent="1" vertex="1">
          <mxGeometry x="1010" y="150" width="70" height="40" as="geometry" />
        </mxCell>
        <mxCell id="Ajl2_Fg5Av_l7NtDkMye-9" value="" style="endArrow=none;html=1;rounded=0;entryX=0.5;entryY=0;entryDx=0;entryDy=0;exitX=0.25;exitY=1;exitDx=0;exitDy=0;" parent="1" source="5MQPCh5CGqPXgM4dFMeY-74" target="Ajl2_Fg5Av_l7NtDkMye-8" edge="1">
          <mxGeometry width="50" height="50" relative="1" as="geometry">
            <mxPoint x="930" y="145" as="sourcePoint" />
            <mxPoint x="755" y="25" as="targetPoint" />
          </mxGeometry>
        </mxCell>
        <mxCell id="k3s_mHQuCRHJbl-QcSRI-1" value="" style="endArrow=none;html=1;rounded=0;entryX=0.5;entryY=1;entryDx=0;entryDy=0;" edge="1" parent="1" target="5MQPCh5CGqPXgM4dFMeY-36">
          <mxGeometry width="50" height="50" relative="1" as="geometry">
            <mxPoint x="475" y="470" as="sourcePoint" />
            <mxPoint x="370" y="600" as="targetPoint" />
          </mxGeometry>
        </mxCell>
        <mxCell id="k3s_mHQuCRHJbl-QcSRI-2" value="NGUYÊN LIỆU" style="rounded=0;whiteSpace=wrap;html=1;fillColor=#3AAD4C;strokeColor=#82b366;" vertex="1" parent="1">
          <mxGeometry x="420" y="465" width="110" height="60" as="geometry" />
        </mxCell>
      </root>
    </mxGraphModel>
  </diagram>
</mxfile>
